<svg width="33" height="32" viewBox="0 0 33 32" fill="none" xmlns="http://www.w3.org/2000/svg">
<path d="M28.5 6H20.5C19.7238 6 18.9582 6.18073 18.2639 6.52786C17.5697 6.875 16.9657 7.37902 16.5 8C16.0343 7.37902 15.4303 6.875 14.7361 6.52786C14.0418 6.18073 13.2762 6 12.5 6H4.5C3.96957 6 3.46086 6.21071 3.08579 6.58579C2.71071 6.96086 2.5 7.46957 2.5 8V24C2.5 24.5304 2.71071 25.0391 3.08579 25.4142C3.46086 25.7893 3.96957 26 4.5 26H12.5C13.2956 26 14.0587 26.3161 14.6213 26.8787C15.1839 27.4413 15.5 28.2044 15.5 29C15.5 29.2652 15.6054 29.5196 15.7929 29.7071C15.9804 29.8946 16.2348 30 16.5 30C16.7652 30 17.0196 29.8946 17.2071 29.7071C17.3946 29.5196 17.5 29.2652 17.5 29C17.5 28.2044 17.8161 27.4413 18.3787 26.8787C18.9413 26.3161 19.7044 26 20.5 26H28.5C29.0304 26 29.5391 25.7893 29.9142 25.4142C30.2893 25.0391 30.5 24.5304 30.5 24V8C30.5 7.46957 30.2893 6.96086 29.9142 6.58579C29.5391 6.21071 29.0304 6 28.5 6ZM12.5 24H4.5V8H12.5C13.2956 8 14.0587 8.31607 14.6213 8.87868C15.1839 9.44129 15.5 10.2044 15.5 11V25C14.6353 24.3493 13.5821 23.9983 12.5 24ZM28.5 24H20.5C19.4179 23.9983 18.3647 24.3493 17.5 25V11C17.5 10.2044 17.8161 9.44129 18.3787 8.87868C18.9413 8.31607 19.7044 8 20.5 8H28.5V24ZM20.5 11H25.5C25.7652 11 26.0196 11.1054 26.2071 11.2929C26.3946 11.4804 26.5 11.7348 26.5 12C26.5 12.2652 26.3946 12.5196 26.2071 12.7071C26.0196 12.8946 25.7652 13 25.5 13H20.5C20.2348 13 19.9804 12.8946 19.7929 12.7071C19.6054 12.5196 19.5 12.2652 19.5 12C19.5 11.7348 19.6054 11.4804 19.7929 11.2929C19.9804 11.1054 20.2348 11 20.5 11ZM26.5 16C26.5 16.2652 26.3946 16.5196 26.2071 16.7071C26.0196 16.8946 25.7652 17 25.5 17H20.5C20.2348 17 19.9804 16.8946 19.7929 16.7071C19.6054 16.5196 19.5 16.2652 19.5 16C19.5 15.7348 19.6054 15.4804 19.7929 15.2929C19.9804 15.1054 20.2348 15 20.5 15H25.5C25.7652 15 26.0196 15.1054 26.2071 15.2929C26.3946 15.4804 26.5 15.7348 26.5 16ZM26.5 20C26.5 20.2652 26.3946 20.5196 26.2071 20.7071C26.0196 20.8946 25.7652 21 25.5 21H20.5C20.2348 21 19.9804 20.8946 19.7929 20.7071C19.6054 20.5196 19.5 20.2652 19.5 20C19.5 19.7348 19.6054 19.4804 19.7929 19.2929C19.9804 19.1054 20.2348 19 20.5 19H25.5C25.7652 19 26.0196 19.1054 26.2071 19.2929C26.3946 19.4804 26.5 19.7348 26.5 20Z" fill="#1C1C1C"/>
</svg>
