<svg width="20" height="20" viewBox="0 0 20 20" fill="none" xmlns="http://www.w3.org/2000/svg">
<path d="M0.73 2.77876C0.821682 2.6407 0.964443 2.54471 1.12689 2.51189C1.28933 2.47907 1.45816 2.51212 1.59625 2.60376L3.47125 3.85501C3.60388 3.94905 3.69464 4.09107 3.72428 4.25094C3.75391 4.4108 3.72008 4.57592 3.62997 4.71125C3.53986 4.84658 3.40056 4.94147 3.24163 4.97578C3.0827 5.01008 2.91666 4.98111 2.77875 4.89501L0.90375 3.64501C0.765895 3.55313 0.670158 3.41028 0.637578 3.24785C0.604998 3.08541 0.63824 2.91669 0.73 2.77876ZM10 2.50001C8.50816 2.50001 7.07742 3.09264 6.02252 4.14753C4.96763 5.20242 4.375 6.63317 4.375 8.12501V11.1263L3.17 14.1425C3.132 14.2373 3.11782 14.34 3.1287 14.4416C3.13959 14.5432 3.17521 14.6406 3.23245 14.7252C3.28968 14.8098 3.36679 14.8791 3.45702 14.927C3.54724 14.9749 3.64784 15 3.75 15H16.25C16.352 14.9999 16.4524 14.9748 16.5425 14.927C16.6326 14.8791 16.7096 14.81 16.7668 14.7255C16.824 14.6411 16.8597 14.5439 16.8707 14.4425C16.8817 14.3411 16.8677 14.2385 16.83 14.1438L15.625 11.125V8.12501C15.625 6.63317 15.0324 5.20242 13.9775 4.14753C12.9226 3.09264 11.4918 2.50001 10 2.50001ZM10 18.125C9.44565 18.1251 8.90698 17.941 8.46868 17.6016C8.03039 17.2622 7.71734 16.7868 7.57875 16.25H12.4213C12.2827 16.7868 11.9696 17.2622 11.5313 17.6016C11.093 17.941 10.5543 18.1251 10 18.125ZM18.4037 2.60501C18.5417 2.5189 18.7077 2.48993 18.8666 2.52424C19.0256 2.55855 19.1649 2.65344 19.255 2.78877C19.3451 2.9241 19.3789 3.08922 19.3493 3.24908C19.3196 3.40894 19.2289 3.55097 19.0963 3.64501L17.2213 4.89501C17.0833 4.98111 16.9173 5.01008 16.7584 4.97578C16.5994 4.94147 16.4601 4.84658 16.37 4.71125C16.2799 4.57592 16.2461 4.4108 16.2757 4.25094C16.3054 4.09107 16.3961 3.94905 16.5287 3.85501L18.4037 2.60501ZM0 8.12501C0 7.95925 0.065848 7.80028 0.183058 7.68307C0.300269 7.56586 0.45924 7.50001 0.625 7.50001H2.5C2.66576 7.50001 2.82473 7.56586 2.94194 7.68307C3.05915 7.80028 3.125 7.95925 3.125 8.12501C3.125 8.29077 3.05915 8.44974 2.94194 8.56695C2.82473 8.68416 2.66576 8.75001 2.5 8.75001H0.625C0.45924 8.75001 0.300269 8.68416 0.183058 8.56695C0.065848 8.44974 0 8.29077 0 8.12501ZM19.375 7.50001C19.5408 7.50001 19.6997 7.56586 19.8169 7.68307C19.9342 7.80028 20 7.95925 20 8.12501C20 8.29077 19.9342 8.44974 19.8169 8.56695C19.6997 8.68416 19.5408 8.75001 19.375 8.75001H17.5C17.3342 8.75001 17.1753 8.68416 17.0581 8.56695C16.9408 8.44974 16.875 8.29077 16.875 8.12501C16.875 7.95925 16.9408 7.80028 17.0581 7.68307C17.1753 7.56586 17.3342 7.50001 17.5 7.50001H19.375Z" fill="#389F63"/>
</svg>
