<svg width="46" height="46" viewBox="0 0 46 46" fill="none" xmlns="http://www.w3.org/2000/svg">
<path d="M15.7335 11.5519C16.6854 9.25615 15.596 6.62341 13.3002 5.67153C11.0044 4.71966 8.37169 5.80909 7.41982 8.10486C6.46794 10.4006 7.55738 13.0334 9.85315 13.9852C12.1489 14.9371 14.7817 13.8477 15.7335 11.5519Z" fill="#FBCD09"/>
<path d="M11.6797 36.1897C13.7378 36.1897 15.4063 34.5213 15.4063 32.4631C15.4063 30.405 13.7378 28.7366 11.6797 28.7366C9.62156 28.7366 7.95312 30.405 7.95312 32.4631C7.95312 34.5213 9.62156 36.1897 11.6797 36.1897Z" fill="#FBCD09"/>
<path d="M13.0859 37.0334H10.2031C8.375 37.0334 6.89844 38.51 6.89844 40.3381H16.3203C16.3906 38.51 14.9141 37.0334 13.0859 37.0334Z" fill="#FBCD09"/>
<path d="M22.3672 36.1897C24.4253 36.1897 26.0938 34.5213 26.0938 32.4631C26.0938 30.405 24.4253 28.7366 22.3672 28.7366C20.3091 28.7366 18.6406 30.405 18.6406 32.4631C18.6406 34.5213 20.3091 36.1897 22.3672 36.1897Z" fill="#FBCD09"/>
<path d="M23.7734 37.0334H20.8906C19.0625 37.0334 17.5859 38.51 17.5859 40.3381H27.0078C27.0781 38.51 25.6016 37.0334 23.7734 37.0334Z" fill="#FBCD09"/>
<path d="M32.9844 36.1897C35.0425 36.1897 36.7109 34.5213 36.7109 32.4631C36.7109 30.405 35.0425 28.7366 32.9844 28.7366C30.9263 28.7366 29.2578 30.405 29.2578 32.4631C29.2578 34.5213 30.9263 36.1897 32.9844 36.1897Z" fill="#FBCD09"/>
<path d="M39.0312 26.135C38.2578 26.135 37.625 26.7678 37.625 27.5413V36.5413L36.5 37.8069C35.9375 37.3147 35.2344 37.0334 34.3906 37.0334H31.5078C29.6797 37.0334 28.2031 38.51 28.2031 40.3381H37.5547C37.8359 40.2678 38.1172 40.1272 38.3281 39.9163L39.9453 38.0178C40.1562 37.7366 40.2969 37.4553 40.2969 37.1038V27.5413C40.4375 26.6975 39.8047 26.135 39.0312 26.135ZM14.3516 15.8694H8.79688C7.25 15.8694 5.98438 17.135 5.98438 18.6819V25.7131H17.0938V18.6819C17.1641 17.0647 15.8984 15.8694 14.3516 15.8694ZM29.3984 22.9709L31.8594 26.4866C32.1406 26.8381 32.5625 27.1194 32.9844 27.1194H33.125C33.6172 27.0491 34.1094 26.6975 34.25 26.2756L35.6562 22.8303C38.9609 21.5647 41.1406 18.5413 41.1406 15.1663C41.1406 10.5959 37.1328 6.86938 32.2813 6.86938C27.4297 6.86938 23.4219 10.5959 23.4219 15.1663C23.4922 18.6819 25.8828 21.7756 29.3984 22.9709ZM32.3516 9.7522C35.7266 9.7522 38.3984 12.2131 38.3984 15.2366C38.3984 17.5569 36.7109 19.6663 34.25 20.4397C33.8281 20.5803 33.5469 20.8616 33.3359 21.2834L32.7031 22.76L31.4375 20.9319C31.2266 20.6506 30.9453 20.4397 30.6641 20.3694C28.1328 19.6663 26.3047 17.5569 26.3047 15.1663C26.3047 12.1428 28.9766 9.7522 32.3516 9.7522Z" fill="#FBCD09"/>
</svg>
