<svg width="21" height="20" viewBox="0 0 21 20" fill="none" xmlns="http://www.w3.org/2000/svg">
<path d="M8.24189 17.4999C7.5534 17.4966 6.87246 17.3564 6.23868 17.0874C5.60489 16.8184 5.03094 16.4261 4.55022 15.9332C4.07311 15.481 3.68985 14.9392 3.42237 14.3387C3.15489 13.7382 3.00845 13.0909 2.99142 12.4337C2.9744 11.7766 3.08712 11.1226 3.32313 10.509C3.55915 9.89549 3.91384 9.33453 4.36689 8.85822L10.5002 2.66655C10.8275 2.33922 11.2178 2.0818 11.6476 1.9099C12.0773 1.738 12.5375 1.65521 13.0002 1.66655C13.4958 1.66824 13.9861 1.76859 14.4425 1.96174C14.8989 2.15489 15.3123 2.43698 15.6586 2.79155C16.3477 3.45509 16.7474 4.36365 16.7708 5.32003C16.7942 6.27642 16.4394 7.20344 15.7836 7.89989L9.61689 14.0916C9.41937 14.2904 9.18433 14.448 8.92541 14.5553C8.66648 14.6626 8.38883 14.7174 8.10855 14.7166C7.80578 14.717 7.506 14.6567 7.2269 14.5393C6.9478 14.422 6.69505 14.2499 6.48355 14.0332C6.06083 13.6239 5.8167 13.0644 5.80422 12.4761C5.79173 11.8878 6.0119 11.3184 6.41689 10.8916L12.1086 5.17489C12.2705 5.06731 12.465 5.01976 12.6584 5.04048C12.8517 5.06121 13.0318 5.14889 13.1673 5.28835C13.3028 5.42782 13.3852 5.61028 13.4004 5.80414C13.4155 5.99801 13.3624 6.19106 13.2502 6.34989L7.55855 12.0666C7.46364 12.1809 7.41745 12.3279 7.42992 12.476C7.44239 12.6241 7.51253 12.7614 7.62522 12.8582C7.74248 12.9763 7.90056 13.0449 8.06689 13.0499C8.1285 13.0508 8.18968 13.0394 8.24689 13.0166C8.3041 12.9937 8.35621 12.9597 8.40022 12.9166L14.5586 6.72489C14.9042 6.34087 15.0849 5.83625 15.0615 5.3201C15.0381 4.80394 14.8125 4.31773 14.4336 3.96655C14.0815 3.60109 13.6028 3.38444 13.096 3.36119C12.5891 3.33793 12.0925 3.50985 11.7086 3.84155L5.55022 9.99989C5.25076 10.3215 5.01785 10.6992 4.86491 11.1112C4.71197 11.5232 4.642 11.9614 4.65904 12.4005C4.67608 12.8397 4.77978 13.2711 4.96419 13.67C5.1486 14.0689 5.41007 14.4274 5.73355 14.7249C6.05795 15.0612 6.44611 15.3294 6.87536 15.514C7.3046 15.6986 7.76633 15.7958 8.23355 15.7999C8.6364 15.8032 9.03593 15.7268 9.40918 15.5752C9.78244 15.4236 10.1221 15.1998 10.4086 14.9166L16.5669 8.72489C16.644 8.64719 16.7357 8.58545 16.8368 8.54319C16.9378 8.50093 17.0461 8.47898 17.1556 8.47859C17.2651 8.4782 17.3736 8.49939 17.4749 8.54093C17.5762 8.58248 17.6684 8.64357 17.7461 8.72072C17.8238 8.79787 17.8855 8.88957 17.9278 8.99059C17.97 9.0916 17.992 9.19995 17.9924 9.30944C17.9927 9.41894 17.9716 9.52744 17.93 9.62875C17.8885 9.73005 17.8274 9.82219 17.7502 9.89989L11.5919 16.0916C11.1546 16.5365 10.6333 16.8902 10.0582 17.1319C9.48314 17.3737 8.86573 17.4988 8.24189 17.4999Z" fill="#C0C2C6"/>
</svg>
