<svg width="24" height="24" viewBox="0 0 24 24" fill="none" xmlns="http://www.w3.org/2000/svg">
<path d="M21 5.25V17.25C21 17.4489 20.921 17.6397 20.7803 17.7803C20.6397 17.921 20.4489 18 20.25 18H14.6747C14.5452 18 14.4179 18.0334 14.3052 18.0972C14.1925 18.1609 14.0982 18.2528 14.0316 18.3638L12.6431 20.6362C12.5765 20.7473 12.4822 20.8392 12.3695 20.903C12.2568 20.9668 12.1295 21.0004 12 21.0004C11.8705 21.0004 11.7432 20.9668 11.6305 20.903C11.5178 20.8392 11.4235 20.7473 11.3569 20.6362L9.96844 18.3638C9.90176 18.2528 9.80748 18.1609 9.69478 18.0972C9.58207 18.0334 9.45479 18 9.32531 18H3.75C3.55109 18 3.36032 17.921 3.21967 17.7803C3.07902 17.6397 3 17.4489 3 17.25V5.25C3 5.05109 3.07902 4.86032 3.21967 4.71967C3.36032 4.57902 3.55109 4.5 3.75 4.5H20.25C20.4489 4.5 20.6397 4.57902 20.7803 4.71967C20.921 4.86032 21 5.05109 21 5.25Z" fill="#F5E7AE"/>
<path d="M20.25 3.75H3.75C3.35218 3.75 2.97064 3.90804 2.68934 4.18934C2.40804 4.47064 2.25 4.85218 2.25 5.25V17.25C2.25 17.6478 2.40804 18.0294 2.68934 18.3107C2.97064 18.592 3.35218 18.75 3.75 18.75H9.32531L10.7137 21.0216C10.8467 21.2433 11.0347 21.427 11.2596 21.5547C11.4844 21.6823 11.7384 21.7497 11.997 21.7503C12.2556 21.7509 12.5099 21.6846 12.7353 21.5579C12.9607 21.4312 13.1495 21.2484 13.2834 21.0272L14.6747 18.75H20.25C20.6478 18.75 21.0294 18.592 21.3107 18.3107C21.592 18.0294 21.75 17.6478 21.75 17.25V5.25C21.75 4.85218 21.592 4.47064 21.3107 4.18934C21.0294 3.90804 20.6478 3.75 20.25 3.75ZM20.25 17.25H14.6747C14.4168 17.2505 14.1633 17.3173 13.9386 17.4439C13.7139 17.5704 13.5254 17.7526 13.3912 17.9728L12 20.25L10.6078 17.9719C10.4735 17.752 10.2852 17.5702 10.0606 17.4438C9.83612 17.3174 9.58295 17.2507 9.32531 17.25H3.75V5.25H20.25V17.25Z" fill="#1C1C1C"/>
</svg>
