<svg width="19" height="18" viewBox="0 0 19 18" fill="none" xmlns="http://www.w3.org/2000/svg">
<path d="M9.5 6V9L11.75 11.25M16.25 9C16.25 9.88642 16.0754 10.7642 15.7362 11.5831C15.397 12.4021 14.8998 13.1462 14.273 13.773C13.6462 14.3998 12.9021 14.897 12.0831 15.2362C11.2642 15.5754 10.3864 15.75 9.5 15.75C8.61358 15.75 7.73583 15.5754 6.91689 15.2362C6.09794 14.897 5.35382 14.3998 4.72703 13.773C4.10023 13.1462 3.60303 12.4021 3.26381 11.5831C2.92459 10.7642 2.75 9.88642 2.75 9C2.75 7.20979 3.46116 5.4929 4.72703 4.22703C5.9929 2.96116 7.70979 2.25 9.5 2.25C11.2902 2.25 13.0071 2.96116 14.273 4.22703C15.5388 5.4929 16.25 7.20979 16.25 9Z" stroke="#D6AD00" stroke-linecap="round" stroke-linejoin="round"/>
</svg>
