<svg width="19" height="18" viewBox="0 0 19 18" fill="none" xmlns="http://www.w3.org/2000/svg">
<path d="M6.31767 5.02254C6.098 4.80287 5.74184 4.80287 5.52217 5.02254C5.3025 5.24221 5.3025 5.59837 5.52217 5.81804L8.70418 9.00004L5.52222 12.182C5.30255 12.4017 5.30255 12.7578 5.52222 12.9775C5.74189 13.1972 6.09804 13.1972 6.31771 12.9775L9.49967 9.79553L12.6816 12.9775C12.9013 13.1972 13.2575 13.1972 13.4771 12.9775C13.6968 12.7578 13.6968 12.4017 13.4771 12.182L10.2952 9.00004L13.4772 5.81804C13.6968 5.59837 13.6968 5.24221 13.4772 5.02254C13.2575 4.80287 12.9013 4.80287 12.6817 5.02254L9.49967 8.20454L6.31767 5.02254Z" fill="#DC3545"/>
</svg>
