<svg width="20" height="20" viewBox="0 0 20 20" fill="none" xmlns="http://www.w3.org/2000/svg">
<path d="M10.0003 5.20841C10.3455 5.20841 10.6253 5.48824 10.6253 5.83341V10.8334C10.6253 11.1786 10.3455 11.4584 10.0003 11.4584C9.65515 11.4584 9.37533 11.1786 9.37533 10.8334V5.83341C9.37533 5.48824 9.65515 5.20841 10.0003 5.20841Z" fill="#DC3545"/>
<path d="M10.0003 14.1667C10.4606 14.1667 10.8337 13.7937 10.8337 13.3334C10.8337 12.8732 10.4606 12.5001 10.0003 12.5001C9.54009 12.5001 9.16699 12.8732 9.16699 13.3334C9.16699 13.7937 9.54009 14.1667 10.0003 14.1667Z" fill="#DC3545"/>
<path fill-rule="evenodd" clip-rule="evenodd" d="M1.04199 10.0001C1.04199 5.05253 5.05277 1.04175 10.0003 1.04175C14.9479 1.04175 18.9587 5.05253 18.9587 10.0001C18.9587 14.9476 14.9479 18.9584 10.0003 18.9584C5.05277 18.9584 1.04199 14.9476 1.04199 10.0001ZM10.0003 2.29175C5.74313 2.29175 2.29199 5.74289 2.29199 10.0001C2.29199 14.2573 5.74313 17.7084 10.0003 17.7084C14.2575 17.7084 17.7087 14.2573 17.7087 10.0001C17.7087 5.74289 14.2575 2.29175 10.0003 2.29175Z" fill="#DC3545"/>
</svg>
