<svg width="40" height="40" viewBox="0 0 40 40" fill="none" xmlns="http://www.w3.org/2000/svg">
<g clip-path="url(#clip0_595_13430)">
<path d="M8.42961 11.4644H5.09992C4.09531 11.4644 3.28094 12.2787 3.28094 13.2834V34.1102M36.7191 34.0715V13.2834C36.7191 12.2787 35.9047 11.4644 34.9001 11.4644H31.4915M37.9978 34.2334H2.00219C1.37102 34.2334 0.859375 34.7451 0.859375 35.3763V35.3875C0.859375 37.4603 2.53969 39.1406 4.6125 39.1406H35.3875C37.4603 39.1406 39.1406 37.4603 39.1406 35.3875V35.3763C39.1406 34.7451 38.629 34.2334 37.9978 34.2334ZM30.7852 25.1398V7.33453L24.3099 0.859375H9.21484V29.3714H26.6435" fill="#926CBB"/>
<path d="M8.42961 11.4644H5.09992C4.09531 11.4644 3.28094 12.2787 3.28094 13.2834V34.1102M36.7191 34.0715V13.2834C36.7191 12.2787 35.9047 11.4644 34.9001 11.4644H31.4915M30.7852 25.1398V7.33453L24.3099 0.859375H9.21484V29.3714H26.6435M37.9978 34.2334H2.00219C1.37102 34.2334 0.859375 34.7451 0.859375 35.3763V35.3875C0.859375 37.4603 2.53969 39.1406 4.6125 39.1406H35.3875C37.4603 39.1406 39.1406 37.4603 39.1406 35.3875V35.3763C39.1406 34.7451 38.629 34.2334 37.9978 34.2334Z" stroke="#6A4099" stroke-width="1.97656" stroke-miterlimit="10" stroke-linecap="round" stroke-linejoin="round"/>
<path d="M24.3099 1.15359V7.33453H30.6274M25.0437 24.953H13.5688V19.6934H26.3759V23.5916" fill="#926CBB"/>
<path d="M24.3099 1.15359V7.33453H30.6274M25.0437 24.953H13.5688V19.6934H26.3759V23.5916" stroke="#6A4099" stroke-width="1.97656" stroke-miterlimit="10" stroke-linecap="round" stroke-linejoin="round"/>
<path d="M15.1606 15.8259V7.81069C15.1606 6.36764 16.326 5.19788 17.7635 5.19788C19.201 5.19788 20.3663 6.36764 20.3663 7.81069V15.8259M15.5172 11.8173H20.0097H15.5172ZM23.3219 11.8448H26.7754H23.3219ZM25.0487 13.5715V10.118V13.5715ZM30.2175 28.7708L29.2365 30.6408C28.7756 31.5192 27.4899 31.4288 27.1564 30.4946L25.3083 25.3163C24.9856 24.4119 25.8586 23.5389 26.763 23.8616L31.9413 25.7098C32.8756 26.0432 32.9659 27.329 32.0874 27.7898L30.2175 28.7708ZM30.2175 28.7708L32.6971 31.2504L30.2175 28.7708Z" fill="#926CBB"/>
<path d="M15.1606 15.8259V7.81069C15.1606 6.36764 16.326 5.19788 17.7635 5.19788C19.201 5.19788 20.3663 6.36764 20.3663 7.81069V15.8259M15.5172 11.8173H20.0097M23.3219 11.8448H26.7754M25.0487 13.5715V10.118M30.2175 28.7708L29.2365 30.6408C28.7756 31.5192 27.4899 31.4288 27.1564 30.4946L25.3083 25.3163C24.9856 24.4119 25.8586 23.5389 26.763 23.8616L31.9413 25.7098C32.8756 26.0432 32.9659 27.329 32.0874 27.7898L30.2175 28.7708ZM30.2175 28.7708L32.6971 31.2504" stroke="#FBCD09" stroke-width="1.97656" stroke-miterlimit="10" stroke-linecap="round" stroke-linejoin="round"/>
</g>
<defs>
<clipPath id="clip0_595_13430">
<rect width="40" height="40" fill="white"/>
</clipPath>
</defs>
</svg>
