<svg width="21" height="21" viewBox="0 0 21 21" fill="none" xmlns="http://www.w3.org/2000/svg">
<path d="M4.4502 9.91528H16.9502C17.116 9.91528 17.2749 9.84943 17.3921 9.73222C17.5093 9.61501 17.5752 9.45604 17.5752 9.29028V7.41528C17.5753 7.33318 17.5591 7.25187 17.5278 7.176C17.4964 7.10013 17.4504 7.03118 17.3924 6.9731L13.0174 2.5981C12.9593 2.54007 12.8903 2.49407 12.8145 2.4627C12.7386 2.43133 12.6573 2.41522 12.5752 2.41528H5.0752C4.74367 2.41528 4.42573 2.54698 4.19131 2.7814C3.95689 3.01582 3.8252 3.33376 3.8252 3.66528V9.29028C3.8252 9.45604 3.89104 9.61501 4.00825 9.73222C4.12546 9.84943 4.28444 9.91528 4.4502 9.91528ZM12.5752 3.97778L16.0127 7.41528H12.5752V3.97778ZM18.2002 12.4153C18.2002 12.581 18.1343 12.74 18.0171 12.8572C17.8999 12.9744 17.741 13.0403 17.5752 13.0403H15.7002V14.2903H16.9502C17.116 14.2903 17.2749 14.3561 17.3921 14.4733C17.5093 14.5906 17.5752 14.7495 17.5752 14.9153C17.5752 15.081 17.5093 15.24 17.3921 15.3572C17.2749 15.4744 17.116 15.5403 16.9502 15.5403H15.7002V16.7903C15.7002 16.956 15.6343 17.115 15.5171 17.2322C15.3999 17.3494 15.241 17.4153 15.0752 17.4153C14.9094 17.4153 14.7505 17.3494 14.6333 17.2322C14.516 17.115 14.4502 16.956 14.4502 16.7903V12.4153C14.4502 12.2495 14.516 12.0906 14.6333 11.9733C14.7505 11.8561 14.9094 11.7903 15.0752 11.7903H17.5752C17.741 11.7903 17.8999 11.8561 18.0171 11.9733C18.1343 12.0906 18.2002 12.2495 18.2002 12.4153ZM5.7002 11.7903H4.4502C4.28444 11.7903 4.12546 11.8561 4.00825 11.9733C3.89104 12.0906 3.8252 12.2495 3.8252 12.4153V16.7903C3.8252 16.956 3.89104 17.115 4.00825 17.2322C4.12546 17.3494 4.28444 17.4153 4.4502 17.4153C4.61596 17.4153 4.77493 17.3494 4.89214 17.2322C5.00935 17.115 5.0752 16.956 5.0752 16.7903V16.1653H5.7002C6.28036 16.1653 6.83676 15.9348 7.24699 15.5246C7.65723 15.1143 7.8877 14.5579 7.8877 13.9778C7.8877 13.3976 7.65723 12.8412 7.24699 12.431C6.83676 12.0208 6.28036 11.7903 5.7002 11.7903ZM5.7002 14.9153H5.0752V13.0403H5.7002C5.94884 13.0403 6.18729 13.1391 6.36311 13.3149C6.53892 13.4907 6.6377 13.7291 6.6377 13.9778C6.6377 14.2264 6.53892 14.4649 6.36311 14.6407C6.18729 14.8165 5.94884 14.9153 5.7002 14.9153ZM10.7002 11.7903H9.4502C9.28443 11.7903 9.12546 11.8561 9.00825 11.9733C8.89104 12.0906 8.8252 12.2495 8.8252 12.4153V16.7903C8.8252 16.956 8.89104 17.115 9.00825 17.2322C9.12546 17.3494 9.28443 17.4153 9.4502 17.4153H10.7002C11.4461 17.4153 12.1615 17.119 12.6889 16.5915C13.2164 16.0641 13.5127 15.3487 13.5127 14.6028C13.5127 13.8569 13.2164 13.1415 12.6889 12.614C12.1615 12.0866 11.4461 11.7903 10.7002 11.7903ZM10.7002 16.1653H10.0752V13.0403H10.7002C11.1146 13.0403 11.512 13.2049 11.805 13.4979C12.0981 13.791 12.2627 14.1884 12.2627 14.6028C12.2627 15.0172 12.0981 15.4146 11.805 15.7076C11.512 16.0007 11.1146 16.1653 10.7002 16.1653Z" fill="#1C1C1C"/>
</svg>
