<svg width="26" height="26" viewBox="0 0 26 26" fill="none" xmlns="http://www.w3.org/2000/svg">
<path fill-rule="evenodd" clip-rule="evenodd" d="M15.167 23.8334H10.8337C6.74815 23.8334 4.7054 23.8334 3.4362 22.5642C2.16699 21.295 2.16699 19.2523 2.16699 15.1667V10.8334C2.16699 6.74791 2.16699 4.70516 3.4362 3.43595C4.7054 2.16675 6.75891 2.16675 10.8659 2.16675C11.5224 2.16675 12.0485 2.16675 12.4912 2.1848C12.4766 2.27139 12.469 2.35972 12.4687 2.44903L12.4587 5.51963C12.4586 6.70816 12.4585 7.75853 12.5723 8.60517C12.6957 9.52288 12.979 10.4404 13.7279 11.1893C14.4767 11.9382 15.3943 12.2215 16.312 12.3449C17.1587 12.4587 18.209 12.4586 19.3976 12.4585L19.5003 12.4585H23.7875C23.8337 13.0373 23.8337 13.7477 23.8337 14.6932V15.1667C23.8337 19.2523 23.8337 21.295 22.5645 22.5642C21.2952 23.8334 19.2525 23.8334 15.167 23.8334ZM5.68783 15.7084C5.68783 15.2597 6.05159 14.8959 6.50033 14.8959H15.167C15.6157 14.8959 15.9795 15.2597 15.9795 15.7084C15.9795 16.1571 15.6157 16.5209 15.167 16.5209H6.50033C6.05159 16.5209 5.68783 16.1571 5.68783 15.7084ZM5.68783 19.5001C5.68783 19.0513 6.05159 18.6876 6.50033 18.6876H12.4587C12.9074 18.6876 13.2712 19.0513 13.2712 19.5001C13.2712 19.9488 12.9074 20.3126 12.4587 20.3126H6.50033C6.05159 20.3126 5.68783 19.9488 5.68783 19.5001Z" fill="white"/>
<path d="M20.9647 8.25145L16.676 4.39165C15.4542 3.29198 14.8432 2.74215 14.0936 2.45451L14.0837 5.41686C14.0837 7.9703 14.0837 9.24703 14.8769 10.0403C15.6702 10.8335 16.9469 10.8335 19.5003 10.8335H23.3788C22.986 10.0706 22.2827 9.43769 20.9647 8.25145Z" fill="white"/>
</svg>
