<svg width="26" height="26" viewBox="0 0 26 26" fill="none" xmlns="http://www.w3.org/2000/svg">
<path d="M19.5003 8.66675C19.5003 9.86336 18.5303 10.8334 17.3337 10.8334C16.137 10.8334 15.167 9.86336 15.167 8.66675C15.167 7.47013 16.137 6.50008 17.3337 6.50008C18.5303 6.50008 19.5003 7.47013 19.5003 8.66675Z" fill="white"/>
<path fill-rule="evenodd" clip-rule="evenodd" d="M12.9382 1.35425H13.0625C15.5632 1.35423 17.523 1.35422 19.0521 1.55981C20.6173 1.77023 21.8523 2.20935 22.8217 3.17873C23.7911 4.14811 24.2302 5.38313 24.4406 6.94826C24.6462 8.47737 24.6462 10.4372 24.6462 12.9379V13.0336C24.6462 15.1014 24.6462 16.7942 24.5339 18.1725C24.421 19.5576 24.1897 20.715 23.6721 21.6762C23.4438 22.1002 23.1633 22.4799 22.8217 22.8214C21.8523 23.7908 20.6173 24.2299 19.0521 24.4404C17.523 24.6459 15.5632 24.6459 13.0625 24.6459H12.9382C10.4374 24.6459 8.47762 24.6459 6.94851 24.4404C5.38338 24.2299 4.14835 23.7908 3.17897 22.8214C2.31959 21.962 1.87579 20.8924 1.63979 19.5655C1.40795 18.2621 1.36554 16.6404 1.35673 14.6267C1.35449 14.1145 1.35449 13.5727 1.35449 13.0012V12.9379C1.35448 10.4372 1.35447 8.47737 1.56005 6.94826C1.77048 5.38313 2.2096 4.14811 3.17897 3.17873C4.14835 2.20935 5.38338 1.77023 6.94851 1.55981C8.47761 1.35422 10.4374 1.35423 12.9382 1.35425ZM7.16503 3.17032C5.7801 3.35652 4.94515 3.71065 4.32802 4.32778C3.71089 4.94491 3.35676 5.77985 3.17056 7.16479C2.98122 8.5731 2.97949 10.4237 2.97949 13.0001C2.97949 13.3148 2.97949 13.6192 2.97986 13.9139L4.06443 12.9649C5.05164 12.1011 6.53951 12.1506 7.46707 13.0782L12.1143 17.7254C12.8588 18.4699 14.0307 18.5714 14.8921 17.966L15.2152 17.739C16.4548 16.8678 18.1319 16.9687 19.258 17.9823L22.3243 20.742C22.633 20.0937 22.8163 19.242 22.9142 18.0405C23.0205 16.7357 23.0212 15.1081 23.0212 13.0001C23.0212 10.4237 23.0194 8.5731 22.8301 7.16479C22.6439 5.77985 22.2898 4.94491 21.6726 4.32778C21.0555 3.71065 20.2206 3.35652 18.8356 3.17032C17.4273 2.98097 15.5767 2.97925 13.0003 2.97925C10.4239 2.97925 8.57334 2.98097 7.16503 3.17032Z" fill="white"/>
</svg>
