<svg width="40" height="40" viewBox="0 0 40 40" fill="none" xmlns="http://www.w3.org/2000/svg">
<path d="M24.6875 2.34375H23.3154C22.8313 0.979609 21.5278 0 20 0C18.4722 0 17.1688 0.979609 16.6846 2.34375H15.3125C13.3739 2.34375 11.7969 3.92078 11.7969 5.85938C11.7969 6.50711 12.321 7.03125 12.9688 7.03125H27.0312C27.679 7.03125 28.2031 6.50711 28.2031 5.85938C28.2031 3.92078 26.6261 2.34375 24.6875 2.34375Z" fill="#389F63"/>
<path d="M31.7188 4.6875H30.4283C30.5071 5.07315 30.5468 5.46576 30.5469 5.85938C30.5469 7.79797 28.9698 9.375 27.0312 9.375H12.9688C11.0302 9.375 9.45312 7.79797 9.45312 5.85938C9.45312 5.45812 9.49445 5.06633 9.57172 4.6875H8.28125C6.34266 4.6875 4.76562 6.26453 4.76562 8.20312V36.4844C4.76562 38.423 6.34266 40 8.28125 40H31.7188C33.6573 40 35.2344 38.423 35.2344 36.4844V8.20312C35.2344 6.26453 33.6573 4.6875 31.7188 4.6875ZM16.4844 32.8125H11.7969C11.1491 32.8125 10.625 32.2884 10.625 31.6406C10.625 30.9929 11.1491 30.4688 11.7969 30.4688H16.4844C17.1321 30.4688 17.6562 30.9929 17.6562 31.6406C17.6562 32.2884 17.1321 32.8125 16.4844 32.8125ZM16.4844 24.6094H11.7969C11.1491 24.6094 10.625 24.0852 10.625 23.4375C10.625 22.7898 11.1491 22.2656 11.7969 22.2656H16.4844C17.1321 22.2656 17.6562 22.7898 17.6562 23.4375C17.6562 24.0852 17.1321 24.6094 16.4844 24.6094ZM16.4844 16.4062H11.7969C11.1491 16.4062 10.625 15.8821 10.625 15.2344C10.625 14.5866 11.1491 14.0625 11.7969 14.0625H16.4844C17.1321 14.0625 17.6562 14.5866 17.6562 15.2344C17.6562 15.8821 17.1321 16.4062 16.4844 16.4062ZM27.8598 33.1559C28.3175 33.6136 28.3175 34.3552 27.8598 34.813C27.7511 34.922 27.622 35.0084 27.4798 35.0673C27.3376 35.1263 27.1852 35.1565 27.0312 35.1563C26.8773 35.1565 26.7249 35.1263 26.5827 35.0673C26.4405 35.0084 26.3114 34.922 26.2027 34.813L24.6875 33.2977L23.1723 34.813C23.0636 34.922 22.9345 35.0084 22.7923 35.0673C22.6501 35.1263 22.4977 35.1565 22.3438 35.1563C22.1898 35.1565 22.0374 35.1263 21.8952 35.0673C21.753 35.0084 21.6239 34.922 21.5152 34.813C21.0575 34.3552 21.0575 33.6136 21.5152 33.1559L23.0304 31.6406L21.5152 30.1254C21.0574 29.6677 21.0574 28.926 21.5152 28.4683C21.9729 28.0105 22.7145 28.0105 23.1723 28.4683L24.6875 29.9835L26.2027 28.4683C26.6605 28.0105 27.4021 28.0105 27.8598 28.4683C28.3176 28.926 28.3176 29.6677 27.8598 30.1254L26.3446 31.6406L27.8598 33.1559ZM29.0316 21.9223L25.516 25.4379C25.4073 25.5469 25.2782 25.6333 25.136 25.6923C24.9938 25.7512 24.8414 25.7814 24.6875 25.7812C24.5336 25.7814 24.3812 25.7512 24.239 25.6923C24.0968 25.6333 23.9676 25.5469 23.859 25.4379L21.5152 23.0941C21.0575 22.6364 21.0575 21.8948 21.5152 21.437C21.973 20.9793 22.7146 20.9793 23.1723 21.437L24.6875 22.9523L27.3746 20.2652C27.8323 19.8074 28.574 19.8074 29.0317 20.2652C29.4895 20.7229 29.4895 21.4645 29.0316 21.9223ZM29.0316 14.891L25.516 18.4066C25.4073 18.5156 25.2782 18.6021 25.136 18.661C24.9938 18.7199 24.8414 18.7502 24.6875 18.75C24.5336 18.7502 24.3812 18.7199 24.239 18.661C24.0968 18.6021 23.9676 18.5156 23.859 18.4066L21.5152 16.0629C21.0575 15.6052 21.0575 14.8635 21.5152 14.4058C21.973 13.948 22.7146 13.948 23.1723 14.4058L24.6875 15.921L27.3746 13.2339C27.8323 12.7762 28.574 12.7762 29.0317 13.2339C29.4895 13.6916 29.4895 14.4333 29.0316 14.891Z" fill="#389F63"/>
</svg>
