<svg width="20" height="21" viewBox="0 0 20 21" fill="none" xmlns="http://www.w3.org/2000/svg">
<path d="M5.453 4.66699C5.38624 4.59887 5.30671 4.54457 5.21896 4.5072C5.13121 4.46983 5.03695 4.45012 4.94158 4.44919C4.8462 4.44826 4.75158 4.46614 4.66311 4.50179C4.57465 4.53745 4.49408 4.59018 4.426 4.65699C3.65618 5.42273 3.04549 6.33324 2.62912 7.33606C2.21275 8.33888 1.99894 9.41417 2 10.5C1.99887 11.6275 2.22943 12.7432 2.67737 13.7779C3.12531 14.8126 3.78108 15.7442 4.604 16.515C4.74252 16.643 4.9255 16.7121 5.11408 16.7074C5.30265 16.7027 5.48199 16.6247 5.614 16.49C5.93 16.174 5.891 15.671 5.587 15.38C4.9265 14.7505 4.40089 13.9933 4.04212 13.1544C3.68335 12.3155 3.49891 11.4124 3.5 10.5C3.5 8.65399 4.241 6.97999 5.443 5.76199C5.733 5.46699 5.763 4.97699 5.453 4.66699ZM7.214 6.42999C7.0823 6.29447 6.90225 6.2167 6.71331 6.2137C6.52437 6.2107 6.34194 6.28272 6.206 6.41399C5.66482 6.94784 5.23527 7.58405 4.94238 8.28554C4.64949 8.98704 4.49911 9.7398 4.5 10.5C4.5 12.192 5.23 13.713 6.393 14.765C6.53038 14.8861 6.70909 14.9497 6.89211 14.9427C7.07512 14.9356 7.24839 14.8584 7.376 14.727C7.704 14.399 7.643 13.883 7.335 13.593C6.91295 13.196 6.57675 12.7167 6.34714 12.1848C6.11753 11.6528 5.99938 11.0794 6 10.5C6 9.34999 6.457 8.30599 7.2 7.53999C7.486 7.24599 7.533 6.74799 7.214 6.42999ZM12.786 6.42899C12.9177 6.29347 13.0978 6.2157 13.2867 6.2127C13.4756 6.2097 13.6581 6.28172 13.794 6.41299C14.3353 6.94696 14.7649 7.58333 15.0578 8.285C15.3507 8.98668 15.501 9.73963 15.5 10.5C15.5 12.192 14.77 13.713 13.607 14.765C13.4696 14.8861 13.2909 14.9497 13.1079 14.9427C12.9249 14.9356 12.7516 14.8584 12.624 14.727C12.296 14.399 12.357 13.883 12.665 13.593C13.0871 13.196 13.4233 12.7167 13.6529 12.1848C13.8825 11.6528 14.0006 11.0794 14 10.5C14 9.34999 13.543 8.30599 12.8 7.53999C12.514 7.24599 12.467 6.74699 12.786 6.42899ZM14.547 4.66699C14.6138 4.59887 14.6933 4.54457 14.781 4.5072C14.8688 4.46983 14.9631 4.45012 15.0584 4.44919C15.1538 4.44826 15.2484 4.46614 15.3369 4.50179C15.4254 4.53745 15.5059 4.59018 15.574 4.65699C16.3438 5.42273 16.9545 6.33324 17.3709 7.33606C17.7873 8.33888 18.0011 9.41417 18 10.5C18.0011 11.6275 17.7706 12.7432 17.3226 13.7779C16.8747 14.8126 16.2189 15.7442 15.396 16.515C15.2575 16.643 15.0745 16.7121 14.8859 16.7074C14.6974 16.7027 14.518 16.6247 14.386 16.49C14.07 16.174 14.109 15.671 14.414 15.38C15.0743 14.7504 15.5997 13.9932 15.9583 13.1543C16.3169 12.3154 16.5012 11.4123 16.5 10.5C16.5 8.65399 15.759 6.97999 14.557 5.76199C14.267 5.46699 14.237 4.97699 14.547 4.66699ZM10 8.99999C9.60218 8.99999 9.22065 9.15802 8.93934 9.43933C8.65804 9.72063 8.5 10.1022 8.5 10.5C8.5 10.8978 8.65804 11.2793 8.93934 11.5606C9.22065 11.842 9.60218 12 10 12C10.3978 12 10.7794 11.842 11.0607 11.5606C11.342 11.2793 11.5 10.8978 11.5 10.5C11.5 10.1022 11.342 9.72063 11.0607 9.43933C10.7794 9.15802 10.3978 8.99999 10 8.99999Z" fill="#926CBB"/>
</svg>
