<svg width="26" height="26" viewBox="0 0 26 26" fill="none" xmlns="http://www.w3.org/2000/svg">
<path d="M10.5622 8.39592C10.5622 7.94718 10.1984 7.58342 9.74967 7.58342H8.46697H6.82302C7.22115 4.52704 9.83477 2.16675 12.9997 2.16675C16.1646 2.16675 18.7782 4.52704 19.1763 7.58342H17.5324L14.6247 7.58342C14.1759 7.58342 13.8122 7.94718 13.8122 8.39592C13.8122 8.84465 14.1759 9.20842 14.6247 9.20842L17.6038 9.20842H19.2288V10.8334H17.6038H14.6247C14.1759 10.8334 13.8122 11.1972 13.8122 11.6459C13.8122 12.0946 14.1759 12.4584 14.6247 12.4584H17.5324H19.1763C18.7782 15.5148 16.1646 17.8751 12.9997 17.8751C9.83477 17.8751 7.22115 15.5148 6.82302 12.4584H8.46697H9.74967C10.1984 12.4584 10.5622 12.0946 10.5622 11.6459C10.5622 11.1972 10.1984 10.8334 9.74967 10.8334H8.39551H6.77051V9.20842H8.39551H9.74967C10.1984 9.20842 10.5622 8.84465 10.5622 8.39592Z" fill="white"/>
<path fill-rule="evenodd" clip-rule="evenodd" d="M4.33301 9.75008C4.78174 9.75008 5.14551 10.1139 5.14551 10.5626V11.6459C5.14551 15.9837 8.66194 19.5001 12.9997 19.5001C17.3374 19.5001 20.8538 15.9837 20.8538 11.6459V10.5626C20.8538 10.1139 21.2176 9.75008 21.6663 9.75008C22.1151 9.75008 22.4788 10.1139 22.4788 10.5626V11.6459C22.4788 16.6074 18.667 20.6786 13.8122 21.0907V23.5626C13.8122 24.0113 13.4484 24.3751 12.9997 24.3751C12.5509 24.3751 12.1872 24.0113 12.1872 23.5626V21.0907C7.33232 20.6786 3.52051 16.6074 3.52051 11.6459V10.5626C3.52051 10.1139 3.88428 9.75008 4.33301 9.75008Z" fill="white"/>
</svg>
