<svg width="40" height="40" viewBox="0 0 40 40" fill="none" xmlns="http://www.w3.org/2000/svg">
<path d="M31.9077 3.05196L3.55187 8.55039C3.38839 8.58213 3.2442 8.6775 3.15101 8.81552C3.05782 8.95354 3.02326 9.12291 3.05491 9.28641L8.91202 39.4915C8.94376 39.655 9.03913 39.7992 9.17715 39.8923C9.31516 39.9855 9.48454 40.0201 9.64804 39.9884L30.0416 36.0339L36.9569 25.7918L32.6437 3.54883C32.612 3.38536 32.5166 3.2412 32.3786 3.14802C32.2406 3.05485 32.0712 3.0203 31.9077 3.05196Z" fill="#6A4099"/>
<path d="M30.0419 36.0338L36.9571 25.7917L28.9948 27.3357C28.8313 27.3674 28.6872 27.4628 28.594 27.6008C28.5008 27.7388 28.4662 27.9082 28.4979 28.0717L30.0419 36.0338ZM8.16553 7.65594L11.3594 13.8141L18.2665 12.5583L18.7633 5.60086L8.16553 7.65594Z" fill="#A78AC7"/>
<path d="M19.1907 0.0743531C19.0905 0.0207279 18.9776 -0.00469564 18.8641 0.000794124C18.7506 0.00628389 18.6407 0.042481 18.5461 0.105525L17.0107 1.1292L15.4751 0.105525C15.372 0.036758 15.2508 6.17354e-05 15.1268 6.17354e-05C15.0029 6.17354e-05 14.8817 0.036758 14.7786 0.105525L13.2431 1.1292L11.7076 0.105525C11.2978 -0.167678 10.7314 0.136775 10.7314 0.627947V13.1862C10.7314 13.3528 10.7976 13.5125 10.9154 13.6302C11.0331 13.748 11.1928 13.8141 11.3593 13.8141H18.8943C19.0608 13.8141 19.2205 13.748 19.3382 13.6302C19.456 13.5125 19.5222 13.3528 19.5222 13.1862V0.627947C19.5222 0.514311 19.4913 0.4028 19.433 0.305305C19.3746 0.207811 19.2908 0.12799 19.1907 0.0743531Z" fill="#FBCD09"/>
</svg>
