<svg width="40" height="40" viewBox="0 0 40 40" fill="none" xmlns="http://www.w3.org/2000/svg">
<path d="M20.0002 3.33334C16.7038 3.33334 13.4815 4.31083 10.7407 6.14218C7.99985 7.97354 5.86364 10.5765 4.60218 13.622C3.34072 16.6674 3.01066 20.0185 3.65375 23.2515C4.29684 26.4845 5.88418 29.4542 8.21506 31.7851C10.5459 34.116 13.5156 35.7033 16.7487 36.3464C19.9817 36.9895 23.3328 36.6595 26.3782 35.398C29.4237 34.1365 32.0266 32.0003 33.858 29.2595C35.6894 26.5187 36.6668 23.2964 36.6668 20C36.6668 17.8113 36.2357 15.644 35.3982 13.622C34.5606 11.5999 33.3329 9.76254 31.7853 8.2149C30.2376 6.66725 28.4003 5.4396 26.3782 4.60202C24.3561 3.76444 22.1889 3.33334 20.0002 3.33334ZM16.6668 27.5V12.5L26.6668 20L16.6668 27.5Z" fill="#6A4099"/>
</svg>
