<svg width="40" height="40" viewBox="0 0 40 40" fill="none" xmlns="http://www.w3.org/2000/svg">
<path d="M16.125 22.2625H8.75C8.05 22.2625 7.5 21.7125 7.5 21.0125C7.5 20.325 8.05 19.7625 8.75 19.7625H14.65C14.3 19.0125 14.025 18.225 13.825 17.4H8.75C8.05 17.4 7.5 16.8375 7.5 16.15C7.5 15.4625 8.05 14.9 8.75 14.9H13.4625C13.45 14.6875 13.45 14.4875 13.45 14.275C13.45 12.7875 13.7 11.3625 14.15 10.025H7C4.5125 10.025 2.5 12.05 2.5 14.525V27.5C2.50027 28.6099 2.91185 29.6803 3.65522 30.5045C4.39859 31.3287 5.42102 31.8481 6.525 31.9625V34.6C6.52401 34.8498 6.57248 35.0973 6.66761 35.3283C6.76274 35.5592 6.90266 35.7691 7.07929 35.9457C7.25591 36.1223 7.46576 36.2623 7.69673 36.3574C7.9277 36.4525 8.17521 36.501 8.425 36.5C8.85 36.5 9.2625 36.3625 9.6 36.0875L12.4125 33.875C13.9531 32.6552 15.8599 31.9902 17.825 31.9875H26.475C28.95 31.9875 30.975 29.975 30.975 27.5V26.85C28.3319 27.7454 25.4736 27.784 22.8073 26.9603C20.141 26.1366 17.8025 24.4927 16.125 22.2625ZM16.7375 27.1375H8.75C8.05 27.1375 7.5 26.575 7.5 25.8875C7.5 25.2 8.05 24.6375 8.75 24.6375H16.7375C17.425 24.6375 17.9875 25.2 17.9875 25.8875C17.9875 26.575 17.425 27.1375 16.7375 27.1375Z" fill="#007AFF"/>
<path d="M26.7252 3.5C20.7752 3.5 15.9502 8.3375 15.9502 14.275C15.9502 17.1327 17.0854 19.8734 19.1061 21.8941C21.1268 23.9148 23.8675 25.05 26.7252 25.05C32.6627 25.05 37.5002 20.225 37.5002 14.275C37.5002 8.3375 32.6627 3.5 26.7252 3.5ZM26.7127 21.2125C26.0252 21.2125 25.4627 20.65 25.4627 19.9625C25.4627 19.275 26.0127 18.7125 26.7002 18.7125H26.7127C27.4002 18.7125 27.9627 19.275 27.9627 19.9625C27.9627 20.65 27.4002 21.2125 26.7127 21.2125ZM27.9752 15.4375V16.2C27.9752 16.8875 27.4127 17.45 26.7252 17.45C26.0377 17.45 25.4752 16.8875 25.4752 16.2V14.425C25.4752 13.7375 26.0377 13.175 26.7252 13.175C27.3127 13.175 27.8002 12.7 27.8002 12.1C27.8002 11.5125 27.3127 11.0375 26.7252 11.0375C26.1377 11.0375 25.6502 11.5125 25.6502 12.1C25.6502 12.8 25.0877 13.35 24.4002 13.35C23.7127 13.35 23.1502 12.8 23.1502 12.1C23.1502 10.1375 24.7502 8.5375 26.7252 8.5375C28.6877 8.5375 30.3002 10.1375 30.3002 12.1C30.3002 13.6375 29.3252 14.925 27.9752 15.4375Z" fill="#007AFF"/>
</svg>
