<svg width="46" height="46" viewBox="0 0 46 46" fill="none" xmlns="http://www.w3.org/2000/svg">
<path fill-rule="evenodd" clip-rule="evenodd" d="M39.2925 38.1256V39.1751L44.1275 35.772L39.2925 32.369V33.8604C39.2925 33.9961 39.2386 34.1262 39.1427 34.2221C39.0467 34.3181 38.9166 34.372 38.7809 34.372H25.0107L26.6167 35.5024C26.6851 35.5488 26.7413 35.6111 26.7803 35.6839C26.8194 35.7568 26.8402 35.838 26.841 35.9207C26.8418 36.0034 26.8225 36.085 26.7848 36.1586C26.7472 36.2322 26.6922 36.2955 26.6247 36.3432L24.8188 37.6142H38.7806C38.9162 37.6143 39.0463 37.6682 39.1423 37.764C39.2383 37.8599 39.2923 37.99 39.2925 38.1256Z" fill="#EF4C66"/>
<path fill-rule="evenodd" clip-rule="evenodd" d="M20.6088 32.5224V33.4109C20.609 33.4941 20.5889 33.576 20.5503 33.6496C20.5117 33.7233 20.4557 33.7864 20.3871 33.8334C20.3186 33.8805 20.2396 33.9101 20.157 33.9197C20.0744 33.9293 19.9907 33.9185 19.9132 33.8884C17.8545 33.2674 16.0121 32.0795 14.5966 30.4608C13.1811 28.842 12.2496 26.8577 11.9086 24.7345L10.7886 26.3259C10.7421 26.3943 10.6798 26.4505 10.607 26.4895C10.5341 26.5286 10.4529 26.5494 10.3702 26.5502C10.2875 26.551 10.2059 26.5317 10.1323 26.494C10.0587 26.4564 9.99534 26.4014 9.94763 26.3339L8.59808 24.4167C8.91421 27.5123 10.2048 30.4277 12.2841 32.7429C14.3633 35.058 17.1237 36.6534 20.1677 37.2992C20.29 37.3162 20.402 37.3769 20.4831 37.47C20.5641 37.5631 20.6088 37.6824 20.6088 37.8059V39.3285L25.4438 35.9255L20.6088 32.5224ZM27.9513 33.3486H33.5666C35.5981 31.3343 36.9965 28.77 37.5898 25.9712C37.6065 25.8487 37.6671 25.7363 37.7603 25.6549C37.8535 25.5736 37.973 25.5287 38.0967 25.5286H39.4659L36.0629 20.6935L32.6599 25.5286H33.702C33.7852 25.5283 33.8671 25.5484 33.9408 25.587C34.0144 25.6257 34.0775 25.6817 34.1245 25.7503C34.1716 25.8188 34.2012 25.8978 34.2108 25.9804C34.2203 26.063 34.2096 26.1467 34.1795 26.2242C33.7077 27.7863 32.9082 29.2299 31.8343 30.4585C30.7603 31.6871 29.4367 32.6724 27.9517 33.3488L27.9513 33.3486ZM12.4524 34.3718H1.87256V37.6141H17.63C15.7087 36.8823 13.9496 35.7808 12.4524 34.3718Z" fill="#EF4C66"/>
<path fill-rule="evenodd" clip-rule="evenodd" d="M8.33162 20.318H6.9624L10.3654 25.153L13.7684 20.318H12.7262C12.6429 20.3186 12.5608 20.2988 12.4869 20.2603C12.4131 20.2218 12.3498 20.1657 12.3026 20.097C12.2555 20.0284 12.226 19.9492 12.2166 19.8664C12.2072 19.7836 12.2183 19.6998 12.2488 19.6223C12.8699 17.5636 14.0577 15.7213 15.6765 14.3058C17.2952 12.8903 19.2796 11.9588 21.4027 11.6179L19.8112 10.4978C19.7428 10.4514 19.6867 10.3891 19.6476 10.3162C19.6086 10.2433 19.5878 10.1621 19.587 10.0794C19.5862 9.99678 19.6055 9.91516 19.6432 9.84158C19.6809 9.768 19.7358 9.70464 19.8033 9.65695L21.7206 8.3075C18.625 8.62367 15.7097 9.9143 13.3946 11.9935C11.0795 14.0726 9.48414 16.833 8.83834 19.8769C8.8215 19.9993 8.76088 20.1114 8.66771 20.1925C8.57454 20.2736 8.45514 20.3182 8.33162 20.318Z" fill="#EF4C66"/>
<path fill-rule="evenodd" clip-rule="evenodd" d="M26.2605 8.54746C26.1382 8.53033 26.0263 8.46963 25.9452 8.37652C25.8642 8.28342 25.8195 8.16418 25.8194 8.04074V6.67152L20.9844 10.0745L25.8194 13.4775V12.4354C25.8192 12.3522 25.8393 12.2703 25.8779 12.1967C25.9165 12.123 25.9725 12.06 26.0411 12.0129C26.1096 11.9659 26.1886 11.9363 26.2712 11.9267C26.3538 11.9171 26.4375 11.9278 26.515 11.9579C28.5737 12.579 30.4161 13.7668 31.8316 15.3856C33.2471 17.0043 34.1786 18.9886 34.5196 21.1117L35.6396 19.5204C35.686 19.452 35.7483 19.3959 35.8212 19.3568C35.894 19.3177 35.9753 19.2969 36.058 19.2961C36.1406 19.2953 36.2223 19.3146 36.2959 19.3523C36.3695 19.3899 36.4328 19.4449 36.4805 19.5124L37.8299 21.4297C37.5135 18.3342 36.2228 15.419 34.1437 13.104C32.0645 10.7889 29.3043 9.19348 26.2605 8.54746Z" fill="#EF4C66"/>
<path fill-rule="evenodd" clip-rule="evenodd" d="M26.8424 13.1441L26.8415 14.4622C26.8413 14.5556 26.8155 14.6472 26.7669 14.727C26.7183 14.8068 26.6488 14.8718 26.5659 14.9148C26.483 14.9579 26.3898 14.9774 26.2966 14.9712C26.2034 14.9651 26.1136 14.9335 26.0371 14.8799L22.6691 12.5094C20.6356 12.616 18.6779 13.3153 17.037 14.521C15.3962 15.7267 14.1439 17.3862 13.4346 19.2948L14.7526 19.2958C14.8461 19.296 14.9376 19.3218 15.0174 19.3704C15.0972 19.419 15.1621 19.4885 15.2052 19.5714C15.2482 19.6543 15.2677 19.7474 15.2616 19.8406C15.2554 19.9338 15.2238 20.0236 15.1702 20.1001L12.7998 23.4682C12.9064 25.5017 13.6058 27.4597 14.8116 29.1006C16.0174 30.7416 17.677 31.9939 19.5859 32.7031L19.5869 31.5385C19.5871 31.445 19.6129 31.3535 19.6615 31.2737C19.7101 31.1939 19.7796 31.1289 19.8625 31.0859C19.9454 31.0428 20.0385 31.0233 20.1317 31.0295C20.225 31.0356 20.3147 31.0672 20.3912 31.1208L23.5537 33.3468C25.6238 33.2785 27.6267 32.5959 29.3077 31.3859C30.9886 30.1758 32.2716 28.4931 32.9933 26.5517L31.6753 26.5508C31.5818 26.5506 31.4903 26.5248 31.4105 26.4762C31.3307 26.4276 31.2658 26.358 31.2228 26.2751C31.1797 26.1922 31.1602 26.0991 31.1664 26.0059C31.1725 25.9127 31.2041 25.8229 31.2577 25.7464L33.6285 22.3785C33.5217 20.345 32.8223 18.3872 31.6165 16.7464C30.4107 15.1055 28.7511 13.8533 26.8424 13.1441ZM23.214 15.4891C24.6848 15.4891 26.1227 15.9252 27.3457 16.7424C28.5687 17.5596 29.5219 18.7211 30.0848 20.08C30.6476 21.4389 30.7949 22.9342 30.508 24.3768C30.221 25.8194 29.5127 27.1446 28.4726 28.1846C27.4326 29.2247 26.1074 29.933 24.6648 30.22C23.2222 30.5069 21.7269 30.3596 20.368 29.7968C19.0091 29.2339 17.8476 28.2807 17.0304 27.0577C16.2132 25.8347 15.777 24.3968 15.777 22.926C15.7771 20.9536 16.5606 19.062 17.9553 17.6673C19.35 16.2726 21.2416 15.4891 23.214 15.4891Z" fill="#EF4C66"/>
<path fill-rule="evenodd" clip-rule="evenodd" d="M23.2141 21.506C23.432 21.5057 23.6469 21.5558 23.8422 21.6523L25.3361 20.2711C25.385 20.2249 25.4426 20.1889 25.5055 20.1652C25.5684 20.1414 25.6355 20.1303 25.7027 20.1326C25.7699 20.1349 25.836 20.1505 25.8972 20.1785C25.9583 20.2065 26.0134 20.2463 26.059 20.2957C26.1047 20.3451 26.1402 20.403 26.1633 20.4662C26.1865 20.5293 26.1969 20.5964 26.1939 20.6636C26.191 20.7308 26.1748 20.7968 26.1462 20.8577C26.1176 20.9186 26.0772 20.9732 26.0274 21.0184L24.5336 22.3997C24.6029 22.5735 24.6372 22.7594 24.6344 22.9465C24.6317 23.1337 24.592 23.3184 24.5176 23.4902C24.4432 23.6619 24.3356 23.8173 24.201 23.9473C24.0664 24.0773 23.9074 24.1795 23.7332 24.2479C23.5589 24.3163 23.3729 24.3496 23.1858 24.3458C22.9987 24.3421 22.8141 24.3014 22.6428 24.2261C22.4714 24.1508 22.3166 24.0424 22.1873 23.9071C22.058 23.7718 21.9567 23.6123 21.8892 23.4377H20.2958C20.1601 23.4377 20.03 23.3838 19.9341 23.2879C19.8382 23.1919 19.7843 23.0618 19.7843 22.9261C19.7843 22.7905 19.8382 22.6603 19.9341 22.5644C20.03 22.4685 20.1601 22.4146 20.2958 22.4146H21.8895C21.9929 22.1471 22.1748 21.9172 22.4113 21.755C22.6478 21.5928 22.9278 21.506 23.2146 21.506H23.2141ZM23.4949 22.6454C23.1251 22.2756 22.5636 22.8371 22.9334 23.2069C23.3032 23.5767 23.8648 23.0152 23.4949 22.6454ZM19.0985 19.5338L19.4729 19.9082C19.569 20.0033 19.6988 20.0564 19.8339 20.0561C19.9691 20.0557 20.0987 20.0018 20.1942 19.9062C20.2898 19.8107 20.3437 19.6811 20.344 19.546C20.3444 19.4108 20.2913 19.281 20.1962 19.1849L19.8218 18.8105C19.7257 18.7154 19.5959 18.6623 19.4607 18.6626C19.3255 18.663 19.196 18.7169 19.1004 18.8124C19.0048 18.908 18.951 19.0376 18.9506 19.1727C18.9503 19.3079 19.0034 19.4377 19.0985 19.5338ZM27.3299 26.3185C27.424 26.4148 27.4763 26.5443 27.4756 26.679C27.4748 26.8136 27.421 26.9425 27.3257 27.0378C27.2305 27.133 27.1016 27.1868 26.9669 27.1876C26.8323 27.1884 26.7028 27.136 26.6065 27.0419L26.2321 26.6674C26.1846 26.6199 26.1469 26.5635 26.1212 26.5015C26.0955 26.4394 26.0823 26.3729 26.0823 26.3057C26.0823 26.2385 26.0955 26.172 26.1212 26.11C26.1469 26.0479 26.1846 25.9915 26.2321 25.944C26.2796 25.8965 26.336 25.8589 26.3981 25.8332C26.4601 25.8075 26.5266 25.7942 26.5938 25.7942C26.661 25.7942 26.7275 25.8075 26.7896 25.8332C26.8516 25.8589 26.908 25.8966 26.9555 25.9441L27.3299 26.3185ZM19.8218 27.0419C19.7259 27.1378 19.5958 27.1917 19.4601 27.1917C19.3245 27.1917 19.1944 27.1378 19.0984 27.0418C19.0025 26.9459 18.9486 26.8158 18.9486 26.6801C18.9486 26.5445 19.0025 26.4144 19.0985 26.3185L19.4729 25.9441C19.5203 25.8962 19.5767 25.8581 19.6388 25.832C19.701 25.806 19.7677 25.7925 19.8351 25.7923C19.9025 25.7921 19.9693 25.8053 20.0316 25.831C20.0939 25.8567 20.1505 25.8945 20.1982 25.9421C20.2458 25.9898 20.2836 26.0464 20.3093 26.1087C20.335 26.171 20.3481 26.2378 20.348 26.3052C20.3478 26.3726 20.3343 26.4393 20.3082 26.5014C20.2822 26.5636 20.2441 26.62 20.1962 26.6674L19.8218 27.0419ZM26.6065 18.8105L26.2321 19.1849C26.1362 19.2808 26.0823 19.4109 26.0823 19.5466C26.0823 19.6822 26.1362 19.8123 26.2321 19.9082C26.328 20.0042 26.4582 20.058 26.5938 20.058C26.7295 20.058 26.8596 20.0041 26.9555 19.9082L27.3299 19.5338C27.3774 19.4863 27.415 19.4299 27.4407 19.3679C27.4664 19.3058 27.4797 19.2393 27.4797 19.1721C27.4797 19.105 27.4664 19.0384 27.4407 18.9764C27.415 18.9143 27.3773 18.8579 27.3298 18.8104C27.2823 18.763 27.2259 18.7253 27.1639 18.6996C27.1018 18.6739 27.0353 18.6606 26.9681 18.6607C26.901 18.6607 26.8344 18.6739 26.7724 18.6996C26.7103 18.7253 26.6539 18.763 26.6065 18.8105ZM17.9052 23.4374C17.7695 23.4374 17.6394 23.3835 17.5434 23.2876C17.4475 23.1917 17.3936 23.0616 17.3936 22.9259C17.3936 22.7902 17.4475 22.6601 17.5434 22.5641C17.6394 22.4682 17.7695 22.4143 17.9052 22.4143H18.4346C18.5703 22.4143 18.7004 22.4682 18.7964 22.5641C18.8923 22.6601 18.9462 22.7902 18.9462 22.9259C18.9462 23.0616 18.8923 23.1917 18.7964 23.2876C18.7004 23.3835 18.5703 23.4374 18.4346 23.4374H17.9052ZM28.5232 22.4143C28.6589 22.4143 28.789 22.4682 28.8849 22.5641C28.9809 22.6601 29.0347 22.7902 29.0347 22.9259C29.0347 23.0616 28.9809 23.1917 28.8849 23.2876C28.789 23.3835 28.6589 23.4374 28.5232 23.4374H27.9936C27.858 23.4374 27.7278 23.3835 27.6319 23.2876C27.536 23.1917 27.4821 23.0616 27.4821 22.9259C27.4821 22.7902 27.536 22.6601 27.6319 22.5641C27.7278 22.4682 27.858 22.4143 27.9936 22.4143H28.5232ZM23.7255 28.2348C23.7255 28.3705 23.6716 28.5006 23.5757 28.5966C23.4797 28.6925 23.3496 28.7464 23.214 28.7464C23.0783 28.7464 22.9482 28.6925 22.8522 28.5966C22.7563 28.5006 22.7024 28.3705 22.7024 28.2348V27.7054C22.7024 27.5697 22.7563 27.4396 22.8522 27.3436C22.9482 27.2477 23.0783 27.1938 23.214 27.1938C23.3496 27.1938 23.4797 27.2477 23.5757 27.3436C23.6716 27.4396 23.7255 27.5697 23.7255 27.7054V28.2348ZM22.7026 17.6172C22.7026 17.4815 22.7565 17.3514 22.8524 17.2555C22.9483 17.1595 23.0785 17.1056 23.2141 17.1056C23.3498 17.1056 23.4799 17.1595 23.5759 17.2555C23.6718 17.3514 23.7257 17.4815 23.7257 17.6172V18.1466C23.7257 18.2823 23.6718 18.4124 23.5759 18.5084C23.4799 18.6043 23.3498 18.6582 23.2141 18.6582C23.0785 18.6582 22.9483 18.6043 22.8524 18.5084C22.7565 18.4124 22.7026 18.2823 22.7026 18.1466V17.6172ZM27.7494 18.3909C26.8525 17.4939 25.7096 16.8831 24.4654 16.6356C23.2213 16.3881 21.9317 16.5151 20.7597 17.0006C19.5877 17.486 18.586 18.3081 17.8812 19.3628C17.1765 20.4176 16.8003 21.6576 16.8003 22.9262C16.8003 24.1947 17.1765 25.4348 17.8812 26.4895C18.586 27.5443 19.5877 28.3664 20.7597 28.8518C21.9317 29.3373 23.2213 29.4643 24.4654 29.2168C25.7096 28.9693 26.8525 28.3585 27.7494 27.4615C28.9522 26.2586 29.6279 24.6273 29.6279 22.9262C29.6279 21.2252 28.9522 19.5938 27.7494 18.3909Z" fill="#EF4C66"/>
</svg>
