<svg width="27" height="26" viewBox="0 0 27 26" fill="none" xmlns="http://www.w3.org/2000/svg">
<path fill-rule="evenodd" clip-rule="evenodd" d="M22.5485 11.3976L20.689 16.9761C19.3779 20.9092 18.7224 22.8758 17.7611 23.4347C16.8466 23.9663 15.7172 23.9663 14.8027 23.4347C13.8414 22.8758 13.1859 20.9092 11.8748 16.9761C11.6643 16.3445 11.559 16.0288 11.3823 15.7648C11.2111 15.509 10.9914 15.2893 10.7356 15.1181C10.4717 14.9414 10.1559 14.8361 9.52435 14.6256C5.59116 13.3146 3.62457 12.659 3.06572 11.6977C2.53408 10.7832 2.53408 9.6538 3.06572 8.73931C3.62457 7.77802 5.59116 7.12249 9.52435 5.81143L15.1028 3.95195C19.976 2.32753 22.4127 1.51532 23.6989 2.80153C24.9851 4.08774 24.1729 6.52436 22.5485 11.3976ZM14.6332 11.8108C14.3176 11.4917 14.3205 10.9773 14.6395 10.6617L19.2009 6.15062C19.52 5.83508 20.0344 5.83793 20.35 6.15699C20.6655 6.47604 20.6626 6.99048 20.3436 7.30602L15.7822 11.8171C15.4631 12.1327 14.9487 12.1298 14.6332 11.8108Z" fill="white"/>
</svg>
