<svg width="24" height="24" viewBox="0 0 24 24" fill="none" xmlns="http://www.w3.org/2000/svg">
<path d="M19.5 18.75C19.5 19.3433 19.3241 19.9234 18.9944 20.4167C18.6648 20.9101 18.1962 21.2946 17.6481 21.5216C17.0999 21.7487 16.4967 21.8081 15.9147 21.6924C15.3328 21.5766 14.7982 21.2909 14.3787 20.8713C13.9591 20.4518 13.6734 19.9172 13.5576 19.3353C13.4419 18.7533 13.5013 18.1501 13.7284 17.602C13.9554 17.0538 14.3399 16.5852 14.8333 16.2556C15.3266 15.926 15.9067 15.75 16.5 15.75C17.2957 15.75 18.0587 16.0661 18.6213 16.6287C19.1839 17.1913 19.5 17.9544 19.5 18.75ZM16.5 8.25C17.0933 8.25 17.6734 8.07405 18.1667 7.74441C18.6601 7.41477 19.0446 6.94623 19.2716 6.39805C19.4987 5.84987 19.5581 5.24667 19.4424 4.66473C19.3266 4.08279 19.0409 3.54824 18.6213 3.12868C18.2018 2.70912 17.6672 2.4234 17.0853 2.30765C16.5033 2.19189 15.9001 2.2513 15.352 2.47836C14.8038 2.70543 14.3352 3.08994 14.0056 3.58329C13.6759 4.07664 13.5 4.65666 13.5 5.25C13.5 6.04565 13.8161 6.80871 14.3787 7.37132C14.9413 7.93393 15.7044 8.25 16.5 8.25Z" fill="#F5E7AE"/>
<path d="M16.5002 15.0001C15.9999 14.9999 15.5047 15.1001 15.0438 15.2948C14.5829 15.4895 14.1658 15.7747 13.8171 16.1335L9.49522 13.3557C9.83519 12.4839 9.83519 11.5162 9.49522 10.6444L13.8171 7.86664C14.4663 8.53162 15.3392 8.93187 16.2668 8.98979C17.1943 9.0477 18.1103 8.75915 18.8371 8.18009C19.564 7.60102 20.0499 6.77269 20.2007 5.85569C20.3516 4.93869 20.1565 3.99835 19.6534 3.21698C19.1503 2.43562 18.375 1.86889 17.4778 1.62668C16.5806 1.38447 15.6254 1.48403 14.7975 1.90606C13.9695 2.32809 13.3277 3.04252 12.9966 3.91085C12.6655 4.77917 12.6685 5.73951 13.0052 6.6057L8.68335 9.38351C8.16291 8.84921 7.49496 8.48224 6.76489 8.32952C6.03481 8.1768 5.27578 8.24527 4.58481 8.52617C3.89385 8.80707 3.30235 9.28764 2.88592 9.90645C2.4695 10.5253 2.24707 11.2542 2.24707 12.0001C2.24707 12.746 2.4695 13.4749 2.88592 14.0937C3.30235 14.7125 3.89385 15.1931 4.58481 15.474C5.27578 15.7549 6.03481 15.8233 6.76489 15.6706C7.49496 15.5179 8.16291 15.1509 8.68335 14.6166L13.0052 17.3944C12.7157 18.1412 12.6729 18.961 12.883 19.7339C13.0931 20.5067 13.5451 21.192 14.1729 21.6894C14.8006 22.1867 15.5712 22.47 16.3716 22.4978C17.172 22.5256 17.9603 22.2964 18.621 21.8437C19.2818 21.3911 19.7802 20.7388 20.0434 19.9823C20.3066 19.2259 20.3206 18.4051 20.0836 17.64C19.8465 16.875 19.3707 16.206 18.7259 15.731C18.0811 15.2559 17.3011 14.9998 16.5002 15.0001ZM16.5002 3.00007C16.9452 3.00007 17.3802 3.13203 17.7503 3.37927C18.1203 3.6265 18.4087 3.9779 18.579 4.38904C18.7493 4.80017 18.7938 5.25257 18.707 5.68903C18.6202 6.12548 18.4059 6.5264 18.0912 6.84106C17.7765 7.15573 17.3756 7.37002 16.9392 7.45684C16.5027 7.54366 16.0503 7.4991 15.6392 7.3288C15.2281 7.15851 14.8767 6.87012 14.6294 6.50011C14.3822 6.1301 14.2502 5.69508 14.2502 5.25007C14.2502 4.65334 14.4873 4.08104 14.9092 3.65908C15.3312 3.23713 15.9035 3.00007 16.5002 3.00007ZM6.00023 14.2501C5.55522 14.2501 5.1202 14.1181 4.75019 13.8709C4.38018 13.6236 4.09179 13.2722 3.9215 12.8611C3.7512 12.45 3.70664 11.9976 3.79346 11.5611C3.88028 11.1247 4.09457 10.7238 4.40924 10.4091C4.7239 10.0944 5.12481 9.88012 5.56127 9.79331C5.99773 9.70649 6.45013 9.75105 6.86126 9.92134C7.2724 10.0916 7.6238 10.38 7.87103 10.75C8.11827 11.1201 8.25023 11.5551 8.25023 12.0001C8.25023 12.5968 8.01317 13.1691 7.59122 13.5911C7.16926 14.013 6.59696 14.2501 6.00023 14.2501ZM16.5002 21.0001C16.0552 21.0001 15.6202 20.8681 15.2502 20.6209C14.8802 20.3736 14.5918 20.0222 14.4215 19.6111C14.2512 19.2 14.2066 18.7476 14.2935 18.3111C14.3803 17.8747 14.5946 17.4738 14.9092 17.1591C15.2239 16.8444 15.6248 16.6301 16.0613 16.5433C16.4977 16.4565 16.9501 16.501 17.3613 16.6713C17.7724 16.8416 18.1238 17.13 18.371 17.5C18.6183 17.8701 18.7502 18.3051 18.7502 18.7501C18.7502 19.3468 18.5132 19.9191 18.0912 20.3411C17.6693 20.763 17.097 21.0001 16.5002 21.0001Z" fill="#1C1C1C"/>
</svg>
