<svg width="38" height="38" viewBox="0 0 38 38" fill="none" xmlns="http://www.w3.org/2000/svg">
<g clip-path="url(#clip0_1518_6222)">
<path d="M28.9093 6.48835C28.9093 5.59684 28.5614 4.75757 27.9308 4.12701L24.7823 0.9785C24.1605 0.356621 23.2778 0 22.3993 0H22.208V6.67969H28.9094L28.9093 6.48835Z" fill="#FBCD09"/>
<path d="M20.3313 22.9734C20.5443 22.3266 20.9162 21.7243 21.4011 21.2361L28.9389 13.7287V8.90625H21.1162C20.5009 8.90625 20.0391 8.40832 20.0391 7.79297V0H3.33984C1.49818 0 0 1.49818 0 3.33984V34.6602C0 36.5018 1.49818 38 3.33984 38H25.5693C27.411 38 28.9389 36.5018 28.9389 34.6602V26.3513L27.7154 27.545C27.2197 28.0364 26.6392 28.3941 25.9847 28.6127L22.4448 29.7945L21.9055 29.8238C21.014 29.8238 20.1704 29.39 19.6464 28.6638C19.1267 27.9408 18.9854 27.0037 19.268 26.1568L20.3313 22.9734ZM5.56641 20.0391H16.6631C17.2784 20.0391 17.7764 20.537 17.7764 21.1523C17.7764 21.7677 17.2784 22.2656 16.6631 22.2656H5.56641C4.95106 22.2656 4.45312 21.7677 4.45312 21.1523C4.45312 20.537 4.95106 20.0391 5.56641 20.0391ZM4.45312 16.6992C4.45312 16.0839 4.95106 15.5859 5.56641 15.5859H16.6631C17.2784 15.5859 17.7764 16.0839 17.7764 16.6992C17.7764 17.3146 17.2784 17.8125 16.6631 17.8125H5.56641C4.95106 17.8125 4.45312 17.3146 4.45312 16.6992ZM4.45312 25.6055C4.45312 24.9901 4.95106 24.4922 5.56641 24.4922H16.6631C17.2784 24.4922 17.7764 24.9901 17.7764 25.6055C17.7764 26.2208 17.2784 26.7188 16.6631 26.7188H5.56641C4.95106 26.7188 4.45312 26.2208 4.45312 25.6055ZM21.1162 31.1719C21.7315 31.1719 22.2295 31.6698 22.2295 32.2852C22.2295 32.9005 21.7316 33.3984 21.1162 33.3984H14.4365C13.8212 33.3984 13.3232 32.9005 13.3232 32.2852C13.3232 31.6698 13.8212 31.1719 14.4365 31.1719H21.1162ZM5.56641 13.3594C4.95106 13.3594 4.45312 12.8614 4.45312 12.2461C4.45312 11.6307 4.95106 11.1328 5.56641 11.1328H21.1162C21.7315 11.1328 22.2295 11.6307 22.2295 12.2461C22.2295 12.8614 21.7315 13.3594 21.1162 13.3594H5.56641Z" fill="#FBCD09"/>
<path d="M22.3482 23.9584L21.3797 26.8641C21.2345 27.2994 21.6487 27.7135 22.084 27.5681L24.988 26.5982L22.3482 23.9584ZM30.9945 14.7923L23.6626 22.1243L26.8246 25.2864C28.4818 23.6289 31.7062 20.4041 34.1563 17.954L30.9945 14.7923ZM37.3459 11.5992C36.9545 11.2056 36.3783 10.9806 35.7673 10.9806C35.1562 10.9806 34.5801 11.2056 34.1865 11.6003L32.5687 13.2181L35.7303 16.3796L37.3482 14.7617C38.2178 13.8908 38.2177 12.4722 37.3459 11.5992Z" fill="#FBCD09"/>
<path d="M37.3481 14.7618L37.3483 14.7617L37.3547 14.7553C37.3525 14.7575 37.3504 14.7597 37.3481 14.7618ZM37.3645 14.7454C37.3717 14.7382 37.3719 14.7381 37.3645 14.7454V14.7454Z" fill="#FBCD09"/>
</g>
<defs>
<clipPath id="clip0_1518_6222">
<rect width="38" height="38" fill="white"/>
</clipPath>
</defs>
</svg>
