<svg width="19" height="19" viewBox="0 0 19 19" fill="none" xmlns="http://www.w3.org/2000/svg">
<path d="M5.54134 17.4166H3.16634C2.74642 17.4166 2.34369 17.2498 2.04676 16.9528C1.74982 16.6559 1.58301 16.2532 1.58301 15.8333V10.2916C1.58301 9.87166 1.74982 9.46893 2.04676 9.172C2.34369 8.87507 2.74642 8.70825 3.16634 8.70825H5.54134M11.083 7.12492V3.95825C11.083 3.32836 10.8328 2.72427 10.3874 2.27887C9.94199 1.83347 9.3379 1.58325 8.70801 1.58325L5.54134 8.70825V17.4166H14.4713C14.8532 17.4209 15.2237 17.2871 15.5147 17.0398C15.8056 16.7924 15.9974 16.4483 16.0547 16.0708L17.1472 8.94575C17.1816 8.71883 17.1663 8.48712 17.1023 8.2667C17.0383 8.04628 16.9272 7.8424 16.7766 7.6692C16.626 7.496 16.4395 7.35761 16.2301 7.26363C16.0207 7.16965 15.7934 7.12232 15.5638 7.12492H11.083Z" stroke="#91919F" stroke-width="1.26667" stroke-linecap="round" stroke-linejoin="round"/>
</svg>
