<svg width="25" height="24" viewBox="0 0 25 24" fill="none" xmlns="http://www.w3.org/2000/svg">
<path d="M8 9.75V19.5H3.5C3.30109 19.5 3.11032 19.421 2.96967 19.2803C2.82902 19.1397 2.75 18.9489 2.75 18.75V10.5C2.75 10.3011 2.82902 10.1103 2.96967 9.96967C3.11032 9.82902 3.30109 9.75 3.5 9.75H8Z" fill="#D0C3DF"/>
<path d="M22.4375 7.51125C22.2263 7.27193 21.9666 7.08028 21.6757 6.94903C21.3847 6.81778 21.0692 6.74994 20.75 6.75H15.5V5.25C15.5 4.25544 15.1049 3.30161 14.4017 2.59835C13.6984 1.89509 12.7446 1.5 11.75 1.5C11.6107 1.4999 11.4741 1.53862 11.3555 1.61181C11.2369 1.685 11.1411 1.78977 11.0787 1.91438L7.53687 9H3.5C3.10218 9 2.72064 9.15804 2.43934 9.43934C2.15804 9.72064 2 10.1022 2 10.5V18.75C2 19.1478 2.15804 19.5294 2.43934 19.8107C2.72064 20.092 3.10218 20.25 3.5 20.25H19.625C20.1732 20.2502 20.7025 20.0503 21.1137 19.6878C21.5249 19.3253 21.7896 18.8251 21.8581 18.2812L22.9831 9.28125C23.023 8.9644 22.995 8.64268 22.9009 8.3375C22.8068 8.03232 22.6488 7.75066 22.4375 7.51125ZM3.5 10.5H7.25V18.75H3.5V10.5ZM21.4944 9.09375L20.3694 18.0938C20.3465 18.275 20.2583 18.4418 20.1212 18.5626C19.9842 18.6834 19.8077 18.7501 19.625 18.75H8.75V9.92719L12.1916 3.04313C12.7016 3.14521 13.1606 3.4209 13.4903 3.82326C13.82 4.22562 14.0001 4.7298 14 5.25V7.5C14 7.69891 14.079 7.88968 14.2197 8.03033C14.3603 8.17098 14.5511 8.25 14.75 8.25H20.75C20.8564 8.24996 20.9616 8.27258 21.0587 8.31634C21.1557 8.36011 21.2423 8.42402 21.3127 8.50383C21.3831 8.58363 21.4357 8.67752 21.467 8.77923C21.4984 8.88094 21.5077 8.98816 21.4944 9.09375Z" fill="#1C1C1C"/>
</svg>
