<svg width="20" height="20" viewBox="0 0 20 20" fill="none" xmlns="http://www.w3.org/2000/svg">
<path fill-rule="evenodd" clip-rule="evenodd" d="M10.1169 4.09124C9.52165 4.38038 8.76742 4.87612 7.69258 5.5848L7.51014 5.7051C7.49625 5.71425 7.48255 5.72329 7.46902 5.73221C7.15219 5.9412 6.93276 6.08595 6.69231 6.19207C6.45534 6.29665 6.2063 6.37136 5.9509 6.41449C5.69174 6.45825 5.42887 6.4582 5.04931 6.45812C5.03311 6.45812 5.0167 6.45812 5.00007 6.45812C3.79701 6.45812 3.39093 6.47168 3.04567 6.63142C2.71204 6.78578 2.3567 7.12012 2.18233 7.44374C2.00044 7.78133 1.96704 8.12733 1.90283 9.1808C1.88521 9.46994 1.875 9.7471 1.875 9.99978C1.875 10.2525 1.88521 10.5296 1.90283 10.8188C1.96704 11.8722 2.00044 12.2182 2.18233 12.5558C2.3567 12.8794 2.71204 13.2138 3.04567 13.3681C3.39093 13.5279 3.79701 13.5414 5.00007 13.5414C5.0167 13.5414 5.03311 13.5414 5.04931 13.5414C5.42887 13.5414 5.69174 13.5413 5.9509 13.5851C6.2063 13.6282 6.45534 13.7029 6.69231 13.8075C6.93276 13.9136 7.15219 14.0584 7.46902 14.2673C7.48254 14.2763 7.49624 14.2853 7.51013 14.2945L7.69258 14.4148C8.76742 15.1234 9.52165 15.6192 10.1169 15.9083C10.7104 16.1967 11.0072 16.2082 11.2149 16.1374C11.3294 16.0983 11.4414 16.0413 11.5404 15.9717C11.7209 15.8448 11.8855 15.5994 12.0013 14.9566C12.1175 14.3108 12.1603 13.4176 12.2196 12.1419C12.263 11.209 12.2917 10.4263 12.2917 9.99978C12.2917 9.57331 12.263 8.79061 12.2196 7.85764C12.1603 6.58201 12.1175 5.68873 12.0013 5.04299C11.8855 4.40019 11.7209 4.15471 11.5404 4.02784C11.4414 3.95828 11.3294 3.90126 11.2149 3.86219C11.0072 3.79133 10.7104 3.80289 10.1169 4.09124ZM9.57067 2.96688C10.259 2.63249 10.9368 2.44651 11.6186 2.67918C11.8451 2.7565 12.0632 2.86749 12.2591 3.00514C12.8475 3.41864 13.0965 4.07198 13.2315 4.82153C13.3642 5.55849 13.4095 6.53511 13.466 7.75169L13.4683 7.79962C13.5114 8.72875 13.5417 9.53979 13.5417 9.99978C13.5417 10.4598 13.5114 11.2708 13.4683 12.1999L13.466 12.2479C13.4095 13.4645 13.3642 14.4411 13.2315 15.178C13.0965 15.9276 12.8475 16.5809 12.2591 16.9944C12.0632 17.1321 11.8451 17.2431 11.6186 17.3204C10.9368 17.5531 10.259 17.3671 9.57067 17.0327C8.8927 16.7033 8.07011 16.161 7.04439 15.4846L6.82206 15.338C6.4488 15.0919 6.3204 15.0097 6.18761 14.9511C6.04543 14.8883 5.896 14.8435 5.74276 14.8176C5.59964 14.7935 5.44717 14.7914 5.00007 14.7914C4.95474 14.7914 4.91002 14.7915 4.86589 14.7915C3.85179 14.792 3.14716 14.7924 2.5208 14.5026C1.9418 14.2347 1.38451 13.7104 1.0819 13.1487C0.754719 12.5415 0.716328 11.9065 0.66174 11.0035C0.659574 10.9677 0.657384 10.9315 0.655149 10.8948C0.636444 10.5879 0.625 10.2844 0.625 9.99978C0.625 9.71513 0.636444 9.41164 0.655149 9.10476C0.657384 9.06809 0.659574 9.03185 0.66174 8.99604C0.716328 8.09309 0.754719 7.45806 1.0819 6.85082C1.38451 6.28919 1.9418 5.76484 2.5208 5.49696C3.14716 5.20716 3.85179 5.20753 4.86589 5.20807C4.91002 5.20809 4.95474 5.20812 5.00007 5.20812C5.44717 5.20812 5.59964 5.20611 5.74276 5.18194C5.896 5.15606 6.04543 5.11123 6.18761 5.04849C6.3204 4.98988 6.4488 4.90763 6.82206 4.66152L7.0444 4.51492C8.07012 3.83861 8.89271 3.29622 9.57067 2.96688ZM16.2666 4.51982C16.5317 4.29884 16.9258 4.33467 17.1468 4.59984L16.6667 4.99996C17.1468 4.59984 17.1468 4.59984 17.1468 4.59984L17.1478 4.60099L17.1488 4.60228L17.1513 4.60529L17.1576 4.61301C17.1623 4.61893 17.1682 4.62637 17.1751 4.63536C17.189 4.65334 17.2072 4.6775 17.229 4.70797C17.2725 4.76892 17.3305 4.85509 17.3979 4.96746C17.5328 5.19231 17.7052 5.52161 17.875 5.9631C18.2152 6.84757 18.5417 8.17365 18.5417 9.99996C18.5417 11.8263 18.2152 13.1523 17.875 14.0368C17.7052 14.4783 17.5328 14.8076 17.3979 15.0325C17.3305 15.1448 17.2725 15.231 17.229 15.2919C17.2072 15.3224 17.189 15.3466 17.1751 15.3646C17.171 15.3699 17.1672 15.3748 17.1638 15.379C17.1616 15.3819 17.1595 15.3845 17.1576 15.3869L17.1513 15.3946L17.1488 15.3976L17.1478 15.3989C17.1478 15.3989 17.1468 15.4001 16.6667 15L17.1468 15.4001C16.9258 15.6652 16.5317 15.7011 16.2666 15.4801C16.0027 15.2602 15.9659 14.8688 16.1834 14.6037M16.1834 14.6037C16.1834 14.6037 16.1848 14.6018 16.1863 14.6C16.1907 14.5943 16.1994 14.5828 16.2118 14.5654C16.2366 14.5306 16.2763 14.4723 16.326 14.3893C16.4255 14.2236 16.5656 13.9591 16.7083 13.5881C16.9931 12.8476 17.2917 11.6737 17.2917 9.99996C17.2917 8.32627 16.9931 7.15235 16.7083 6.41182C16.5656 6.04081 16.4255 5.77636 16.326 5.61058C16.2763 5.52764 16.2366 5.46928 16.2118 5.43452C16.1994 5.41714 16.1907 5.40566 16.1863 5.39996C16.1848 5.39812 16.1834 5.39624 16.1834 5.39624L16.1863 5.39996L16.185 5.39819L16.1834 5.39624C15.9659 5.13111 16.0027 4.73973 16.2666 4.51982M14.6965 6.95361C14.9982 6.78598 15.3787 6.89469 15.5463 7.19643L15.023 7.48717C15.5464 7.19644 15.5463 7.19643 15.5463 7.19643L15.547 7.19752L15.5476 7.19869L15.549 7.20123L15.5522 7.20716L15.5602 7.22245C15.5663 7.23418 15.5737 7.24897 15.5822 7.26689C15.5993 7.30275 15.6209 7.35108 15.6454 7.41237C15.6945 7.53501 15.7549 7.70912 15.8137 7.93847C15.9315 8.39759 16.0417 9.07486 16.0417 9.99996C16.0417 10.9251 15.9315 11.6023 15.8137 12.0614C15.7549 12.2908 15.6945 12.4649 15.6454 12.5875C15.6209 12.6488 15.5993 12.6972 15.5822 12.733C15.5737 12.7509 15.5663 12.7657 15.5602 12.7775L15.5522 12.7928L15.549 12.7987L15.5476 12.8012L15.547 12.8024C15.547 12.8024 15.5464 12.8035 15.023 12.5127L15.5463 12.8035C15.3787 13.1052 14.9982 13.2139 14.6965 13.0463C14.3973 12.8801 14.2879 12.5046 14.4494 12.2041L14.4536 12.1956C14.4593 12.1836 14.4703 12.1597 14.4848 12.1233C14.5139 12.0506 14.5576 11.9279 14.6029 11.751C14.6935 11.3976 14.7917 10.8249 14.7917 9.99996C14.7917 9.17506 14.6935 8.60233 14.6029 8.24894C14.5576 8.07204 14.5139 7.94929 14.4848 7.87661C14.4703 7.84024 14.4593 7.81631 14.4536 7.80431L14.4494 7.79578C14.2879 7.4953 14.3973 7.11982 14.6965 6.95361Z" fill="#2C2D3A"/>
</svg>
